<?xml version="1.0" standalone="no"?>
<!DOCTYPE svg PUBLIC "-//W3C//DTD SVG 20010904//EN"
 "http://www.w3.org/TR/2001/REC-SVG-20010904/DTD/svg10.dtd">
<svg version="1.0" xmlns="http://www.w3.org/2000/svg"
 width="1024.000000pt" height="1024.000000pt" viewBox="0 0 1024.000000 1024.000000"
 preserveAspectRatio="xMidYMid meet">

<g transform="translate(0.000000,1024.000000) scale(0.100000,-0.100000)"
fill="#000000" stroke="none">
<path d="M0 5120 l0 -5120 5120 0 5120 0 0 5120 0 5120 -5120 0 -5120 0 0
-5120z m5360 4918 c187 -40 353 -128 504 -267 39 -36 203 -198 365 -361 162
-162 806 -808 1430 -1435 949 -952 1146 -1154 1193 -1226 106 -158 156 -310
165 -501 12 -241 -59 -473 -204 -660 -26 -35 -714 -730 -1528 -1544 -1241
-1243 -1493 -1490 -1560 -1533 -357 -232 -724 -260 -1080 -85 -136 68 -218
136 -485 403 -135 135 -797 800 -1471 1476 -1121 1125 -1232 1239 -1292 1330
-114 174 -165 318 -174 501 -13 245 57 470 208 674 67 91 2898 2927 3010 3016
265 211 583 284 919 212z m-3117 -8608 c46 -17 57 -26 57 -44 0 -30 -20 -86
-30 -86 -4 0 -32 11 -62 25 -125 59 -256 14 -307 -106 -64 -149 -19 -330 96
-384 49 -23 153 -24 213 -1 81 31 76 32 89 -21 12 -45 11 -49 -9 -65 -69 -56
-240 -62 -343 -14 -72 34 -148 117 -178 194 -18 45 -23 78 -23 157 -1 88 2
107 25 156 84 179 284 259 472 189z m729 13 c196 -70 297 -309 218 -515 -28
-76 -104 -159 -178 -195 -52 -25 -67 -28 -167 -28 -123 1 -156 10 -234 70 -99
76 -148 195 -138 337 11 157 103 281 248 332 61 21 191 21 251 -1z m2706 3
c29 -8 64 -21 77 -30 21 -14 23 -19 13 -53 -17 -62 -23 -65 -81 -37 -60 28
-157 33 -210 10 -44 -18 -86 -62 -111 -116 -31 -69 -29 -220 5 -286 15 -29 42
-61 68 -79 58 -41 166 -47 256 -16 65 23 69 21 80 -38 8 -44 -13 -64 -93 -87
-167 -49 -360 36 -437 193 -34 69 -45 192 -26 279 44 193 257 314 459 260z
m1095 8 l37 -7 0 -368 0 -369 -65 0 -65 0 0 375 0 375 28 0 c15 0 44 -3 65 -6z
m758 -31 c81 -38 143 -100 169 -170 66 -178 36 -351 -82 -459 -75 -70 -128
-89 -243 -89 -93 0 -105 2 -167 33 -135 66 -200 180 -200 352 -1 170 79 286
240 351 74 30 198 22 283 -18z m-4011 -257 c0 -156 3 -298 6 -315 l7 -31 143
0 c91 0 145 -4 149 -11 4 -6 4 -30 0 -55 l-6 -44 -208 0 -208 0 -6 248 c-9
315 -9 477 0 485 3 4 33 7 65 7 l58 0 0 -284z m610 -31 l0 -315 150 0 150 0 0
-55 0 -55 -212 2 -213 3 -7 355 c-4 195 -5 361 -3 368 3 8 26 12 70 12 l65 0
0 -315z m908 263 l-3 -53 -142 -5 c-78 -3 -144 -7 -147 -10 -2 -3 -6 -48 -7
-100 l-2 -95 124 0 124 0 0 -55 0 -55 -120 0 -119 0 -8 -40 c-4 -22 -7 -68 -7
-102 l-1 -63 165 0 166 0 -3 -57 c-3 -56 -4 -58 -30 -57 -16 0 -111 1 -212 2
l-184 2 -7 38 c-7 46 -24 684 -18 695 2 4 101 7 219 7 l215 0 -3 -52z m1470 3
c2 -28 -1 -47 -10 -52 -7 -5 -57 -9 -110 -9 -54 0 -99 -1 -99 -2 -1 -2 -4
-142 -8 -313 l-6 -310 -63 -3 -63 -3 3 316 3 315 -95 0 c-52 0 -101 4 -107 8
-7 5 -16 29 -19 55 l-7 47 289 -2 289 -3 3 -44z m1658 -143 c81 -106 163 -213
182 -238 19 -25 37 -47 39 -50 3 -3 3 69 0 160 -3 91 -3 200 0 243 l6 77 64 0
63 0 -2 -367 -3 -368 -45 -3 -45 -3 -185 248 -185 248 -3 -247 -2 -248 -59 0
c-44 0 -60 4 -65 16 -3 9 -6 175 -6 370 l0 354 50 0 49 0 147 -192z"/>
<path d="M4995 9921 c-172 -28 -356 -111 -476 -215 -77 -67 -1155 -1141 -2295
-2287 -425 -426 -676 -687 -704 -728 -128 -191 -182 -416 -150 -621 24 -147
85 -284 181 -406 35 -44 587 -605 1228 -1249 1346 -1351 1722 -1723 1800
-1782 331 -251 795 -234 1129 41 73 60 2931 2926 2982 2991 167 211 229 480
166 727 -28 112 -80 227 -131 295 -20 26 -431 444 -913 928 -483 484 -1094
1098 -1357 1365 -545 551 -725 725 -809 782 -81 56 -210 115 -303 139 -87 22
-269 33 -348 20z m-615 -1640 c0 -4 -18 -21 -41 -36 -49 -35 -92 -88 -122
-152 l-22 -48 0 -1195 0 -1195 33 -68 c25 -50 48 -79 85 -109 29 -22 54 -44
55 -49 5 -12 -839 -12 -857 0 -11 7 -4 14 26 30 93 47 142 115 162 226 8 40
11 415 11 1185 0 1238 3 1177 -61 1274 -18 26 -57 66 -87 89 l-56 42 40 6 c62
10 834 10 834 0z m1763 2 c54 -3 94 -9 90 -13 -4 -4 -28 -12 -53 -19 -68 -19
-210 -96 -313 -168 -105 -74 -148 -111 -412 -348 -239 -215 -494 -438 -608
-534 -103 -85 -118 -108 -93 -146 68 -104 268 -327 575 -642 434 -444 613
-608 765 -698 134 -79 233 -114 351 -124 l70 -6 -85 -31 c-129 -47 -194 -57
-322 -51 -175 8 -315 53 -504 162 -211 121 -361 251 -680 586 -342 361 -408
433 -480 529 -69 91 -89 137 -80 175 11 44 107 147 567 605 497 496 510 512
489 588 -7 29 -27 55 -66 91 l-56 51 374 0 c205 0 417 -3 471 -7z m-405 -990
c100 -3 182 -9 182 -13 0 -4 -22 -17 -49 -30 -63 -29 -104 -71 -132 -135 -19
-44 -23 -76 -30 -255 -4 -113 -8 -305 -8 -427 -1 -123 -4 -223 -7 -223 -6 0
-210 210 -319 328 l-49 54 -6 231 c-6 228 -6 233 -34 295 -31 67 -85 124 -145
150 l-36 16 50 7 c72 9 373 10 583 2z m-307 -1661 c51 -35 133 -84 181 -108
l88 -44 0 -413 c0 -408 0 -413 23 -457 32 -65 81 -85 237 -100 288 -28 468 12
645 145 83 63 119 104 161 185 17 34 29 49 31 39 11 -48 -109 -469 -151 -534
l-16 -25 -768 0 c-422 0 -773 4 -781 9 -15 10 -11 12 82 65 62 35 84 59 116
126 l26 55 -4 574 c-3 571 -3 574 17 560 11 -8 62 -43 113 -77z"/>
<path d="M2767 1340 c-51 -16 -99 -61 -125 -119 -22 -47 -26 -71 -26 -151 -1
-84 2 -101 26 -147 32 -60 66 -87 131 -104 93 -23 196 5 242 65 61 80 71 248
20 351 -37 77 -83 107 -173 111 -37 2 -80 -1 -95 -6z"/>
<path d="M7275 1331 c-87 -40 -129 -122 -129 -256 -1 -79 2 -97 27 -148 34
-69 88 -106 169 -114 107 -11 186 33 229 129 20 44 24 69 23 143 -1 98 -14
139 -61 195 -56 67 -174 90 -258 51z"/>
</g>
</svg>
