<?xml version="1.0" standalone="no"?>
<!DOCTYPE svg PUBLIC "-//W3C//DTD SVG 20010904//EN"
 "http://www.w3.org/TR/2001/REC-SVG-20010904/DTD/svg10.dtd">
<svg version="1.0" xmlns="http://www.w3.org/2000/svg"
 width="1024.000000pt" height="1024.000000pt" viewBox="0 0 1024.000000 1024.000000"
 preserveAspectRatio="xMidYMid meet">

<g transform="translate(0.000000,1024.000000) scale(0.100000,-0.100000)"
fill="#000000" stroke="none">
<path d="M4265 10188 c-41 -30 -771 -752 -1786 -1767 -1486 -1486 -1724 -1728
-1773 -1802 -225 -344 -254 -719 -81 -1064 30 -60 78 -141 107 -180 51 -70
785 -811 2633 -2661 1022 -1023 1033 -1033 1210 -1121 280 -141 620 -162 911
-58 106 37 185 80 294 156 54 38 459 438 1420 1404 1971 1979 2143 2153 2207
2232 120 147 200 312 235 483 29 137 21 348 -16 475 -33 112 -110 268 -178
360 -30 41 -495 514 -1112 1130 -1912 1910 -2336 2328 -2430 2399 l-89 66
-171 0 -171 0 88 -40 c49 -21 134 -69 190 -106 92 -61 181 -145 932 -893 1834
-1825 2574 -2569 2623 -2635 147 -202 218 -464 182 -683 -27 -170 -113 -352
-232 -488 -33 -38 -682 -695 -1442 -1460 -759 -765 -1525 -1536 -1701 -1714
-182 -184 -356 -350 -403 -386 -317 -238 -701 -277 -1055 -107 -56 27 -139 77
-184 111 -108 81 -3542 3527 -3614 3626 -109 151 -167 314 -176 498 -11 215
42 392 177 594 18 26 807 823 1754 1769 1836 1837 1766 1770 1965 1870 l86 43
-165 1 -165 0 -70 -52z"/>
<path d="M3274 8469 c-21 -23 -21 -23 57 -64 58 -30 113 -93 134 -154 33 -96
36 -234 33 -1481 l-3 -1235 -23 -67 c-26 -76 -90 -151 -160 -187 -52 -26 -59
-39 -30 -50 13 -5 238 -9 518 -8 431 2 495 4 498 17 1 9 -18 26 -52 43 -110
58 -161 135 -176 271 -13 107 -13 2505 0 2613 14 124 48 177 152 237 54 30 73
57 56 74 -9 9 -144 12 -498 12 -479 0 -487 0 -506 -21z"/>
<path d="M5365 8470 c-18 -20 -18 -22 8 -76 30 -61 34 -117 13 -169 -9 -21
-241 -259 -639 -655 -344 -341 -630 -634 -637 -650 -26 -63 -15 -77 429 -524
467 -469 607 -601 766 -721 270 -203 574 -390 713 -438 143 -49 338 -52 554
-8 149 31 146 53 -16 105 -301 98 -624 307 -970 631 -194 181 -908 888 -947
937 -17 21 -33 55 -36 76 -5 37 -1 43 89 143 139 152 621 636 778 779 311 283
509 414 763 505 83 30 102 49 72 71 -15 11 -106 14 -470 14 -442 0 -452 0
-470 -20z"/>
<path d="M5077 7200 c-63 -8 -94 -28 -84 -54 4 -9 17 -20 29 -25 50 -20 106
-71 129 -118 21 -44 24 -66 30 -248 7 -211 13 -242 59 -310 34 -49 336 -345
372 -364 59 -31 58 -35 58 351 0 381 8 496 39 555 27 54 77 98 142 127 62 27
79 51 54 75 -14 14 -65 16 -393 18 -207 1 -403 -2 -435 -7z"/>
<path d="M5175 5608 c-3 -7 -6 -332 -8 -723 l-3 -710 -23 -63 c-29 -79 -101
-158 -186 -205 -100 -55 -88 -61 135 -68 444 -14 1464 -32 1575 -27 75 3 134
11 157 21 70 30 110 124 163 384 26 130 31 193 16 193 -5 0 -27 -33 -49 -72
-66 -119 -162 -196 -294 -237 -212 -64 -621 -69 -798 -8 -77 26 -142 83 -161
142 -9 29 -14 172 -18 530 -7 546 -3 518 -78 586 -41 37 -317 225 -370 253
-38 19 -52 20 -58 4z"/>
<path d="M1809 715 c-107 -34 -201 -127 -236 -234 -12 -39 -18 -85 -18 -151 0
-82 4 -103 27 -152 32 -70 81 -132 124 -158 28 -18 50 -20 230 -20 175 0 202
3 222 18 l23 18 -20 47 c-11 26 -24 47 -28 47 -4 0 -35 -11 -68 -25 -182 -75
-356 21 -372 206 -18 195 126 329 304 283 32 -8 75 -26 95 -39 l37 -24 25 56
c31 66 29 70 -57 109 -76 34 -212 43 -288 19z"/>
<path d="M2608 717 c-172 -65 -270 -219 -255 -406 7 -103 39 -173 112 -247
l63 -64 195 0 195 0 56 51 c66 60 102 129 116 225 28 181 -47 341 -195 417
-52 27 -72 31 -155 34 -63 2 -107 -1 -132 -10z m188 -122 c91 -27 154 -115
162 -226 14 -201 -125 -329 -306 -280 -88 24 -162 141 -162 256 0 144 100 259
231 264 14 1 48 -6 75 -14z"/>
<path d="M5483 712 c-106 -38 -182 -109 -224 -212 -19 -45 -23 -74 -23 -160
-1 -94 2 -111 26 -162 33 -70 81 -132 124 -158 28 -18 50 -20 228 -20 157 0
203 3 226 15 17 9 30 17 30 18 0 10 -42 87 -50 92 -5 3 -31 -4 -57 -15 -61
-28 -159 -37 -217 -20 -56 15 -119 69 -149 124 -31 59 -32 203 0 261 44 82
118 128 209 128 57 0 141 -25 177 -53 l23 -19 28 56 c32 66 30 69 -57 109 -82
37 -215 44 -294 16z"/>
<path d="M7388 717 c-156 -59 -245 -179 -256 -349 -8 -134 31 -241 119 -323
l48 -45 199 0 198 0 36 27 c51 39 84 82 116 150 24 52 27 69 26 163 0 131 -23
195 -95 275 -74 80 -139 109 -259 112 -62 2 -108 -1 -132 -10z m177 -118 c54
-14 119 -68 147 -123 29 -57 36 -167 14 -233 -34 -103 -119 -166 -221 -165
-134 0 -223 92 -233 239 -6 98 10 152 65 213 64 71 135 92 228 69z"/>
<path d="M3290 360 l0 -360 220 0 220 0 0 40 0 40 -150 0 -150 0 0 320 0 320
-70 0 -70 0 0 -360z"/>
<path d="M3927 713 c-4 -3 -7 -165 -7 -360 l0 -353 230 0 230 0 0 40 0 40
-160 0 -160 0 0 320 0 320 -63 0 c-35 0 -67 -3 -70 -7z"/>
<path d="M4580 360 l0 -360 245 0 245 0 0 40 0 40 -180 0 -180 0 0 115 0 115
160 0 160 0 0 60 0 60 -160 0 -160 0 0 80 0 80 175 0 176 0 -3 63 -3 62 -237
3 -238 2 0 -360z"/>
<path d="M6044 706 c-3 -7 -4 -38 -2 -67 l3 -54 108 4 107 3 0 -296 0 -296 70
0 70 0 0 296 0 296 103 -4 102 -3 0 65 0 65 -278 3 c-229 2 -278 0 -283 -12z"/>
<path d="M6780 360 l0 -360 70 0 70 0 0 360 0 360 -70 0 -70 0 0 -360z"/>
<path d="M8060 360 l0 -360 65 0 65 0 2 250 3 251 115 -158 c62 -87 145 -200
183 -251 l68 -92 69 0 70 0 0 360 0 360 -65 0 -65 0 -2 -255 -3 -255 -103 142
c-56 79 -139 193 -185 253 l-83 110 -67 3 -67 3 0 -361z"/>
</g>
</svg>
